<?xml version="1.0" encoding="UTF-8"?>
<svg xmlns="http://www.w3.org/2000/svg" xmlns:xlink="http://www.w3.org/1999/xlink" width="50pt" height="50pt" viewBox="0 0 50 50" version="1.1">
<g id="surface59">
<path style="fill-rule:nonzero;fill:rgb(100%,100%,100%);fill-opacity:1;stroke-width:10;stroke-linecap:butt;stroke-linejoin:round;stroke:rgb(5.490196%,0%,0%);stroke-opacity:1;stroke-miterlimit:10;" d="M 172 25.794312 L 172 43 L -0.000000000000000888 43 L -0.000000000000000888 25.794312 Z M 172 77.397156 L 172 94.602844 L -0.000000000000000888 94.602844 L -0.000000000000000888 77.397156 Z M 172 129 L 172 146.205688 L -0.000000000000000888 146.205688 L -0.000000000000000888 129 Z M 172 129 " transform="matrix(0.274709,0,0,0.274709,1.375,1.375)"/>
<path style=" stroke:none;fill-rule:nonzero;fill:rgb(100%,100%,100%);fill-opacity:1;" d="M 1.375 8.460938 L 1.375 13.1875 L 48.625 13.1875 L 48.625 8.460938 Z M 1.375 22.636719 L 1.375 27.363281 L 48.625 27.363281 L 48.625 22.636719 Z M 1.375 36.8125 L 1.375 41.539062 L 48.625 41.539062 L 48.625 36.8125 Z M 1.375 36.8125 "/>
</g>
</svg>
